<!-- Generated by IcoMoon.io -->
<svg version="1.1" xmlns="http://www.w3.org/2000/svg" width="33" height="32" viewBox="0 0 33 32">
<title>soc-twitter</title>
<path fill="#afb1b8" d="M28.444 4.502c-0.881 0.387-1.821 0.643-2.8 0.767 1.007-0.601 1.776-1.547 2.138-2.686-0.939 0.56-1.976 0.956-3.081 1.176-0.892-0.95-2.163-1.538-3.55-1.538-2.69 0-4.856 2.184-4.856 4.861 0 0.385 0.033 0.756 0.113 1.108-4.040-0.197-7.615-2.133-10.016-5.083-0.419 0.727-0.665 1.56-0.665 2.456 0 1.683 0.867 3.175 2.159 4.039-0.781-0.015-1.547-0.241-2.196-0.599 0 0.015 0 0.034 0 0.053 0 2.361 1.684 4.323 3.893 4.775-0.396 0.108-0.827 0.16-1.274 0.16-0.311 0-0.625-0.018-0.92-0.083 0.63 1.925 2.416 3.339 4.541 3.385-1.653 1.293-3.753 2.073-6.025 2.073-0.399 0-0.781-0.018-1.163-0.067 2.153 1.388 4.704 2.181 7.455 2.181 8.942 0 13.831-7.407 13.831-13.828 0-0.215-0.007-0.422-0.018-0.628 0.965-0.684 1.775-1.539 2.436-2.523z"></path>
</svg>
